<svg width="154" height="34" viewBox="0 0 154 34" fill="none" xmlns="http://www.w3.org/2000/svg">
<g clip-path="url(#clip0_29_155)">
<path d="M16.1318 30.8163C15.3085 30.8163 14.4851 30.4454 13.9362 29.7963L12.137 27.7254L3.56787 29.4254C2.56153 29.6109 1.5247 29.2709 0.853808 28.4672C0.182918 27.6636 -0.0305472 26.6127 0.304898 25.5927L4.20827 14.0018C4.54371 12.9818 5.39757 12.24 6.43441 12.0854L9.39242 11.56L12.4724 2.1945C12.8079 1.1745 13.6312 0.463595 14.6376 0.278142C15.6744 -4.02182e-05 16.7112 0.401777 17.3821 1.1745L25.2499 10.3236C25.9207 11.1272 26.1342 12.1781 25.7988 13.1672L24.579 16.9072L30.251 23.4291C30.9219 24.2327 31.1354 25.2836 30.7999 26.3036C30.4645 27.2927 29.6716 28.0345 28.6348 28.22L16.7112 30.7545C16.5283 30.7854 16.3453 30.8163 16.1318 30.8163ZM13.3873 25.8709L15.5524 28.4054C15.7354 28.6218 16.0708 28.7454 16.3758 28.6836L28.2994 26.1491C28.6958 26.0872 28.9093 25.7472 28.9398 25.5927C28.9702 25.4381 29.0617 25.0981 28.7873 24.7581L23.9386 19.1636L22.7493 22.7491C22.4443 23.6145 21.7429 24.2636 20.8891 24.4491C20.0047 24.6345 19.0898 24.3254 18.5104 23.6454L15.156 19.8745L10.1853 20.8945C9.97183 20.9254 9.88035 21.1109 9.84985 21.2036C9.81936 21.3272 9.78886 21.4818 9.91084 21.6672L13.3873 25.8709ZM10.3683 13.4763L6.83084 14.1254C6.52589 14.1563 6.28193 14.4036 6.19044 14.6818L2.25658 26.2727C2.10411 26.6745 2.31757 26.9836 2.40906 27.1072C2.53104 27.2309 2.775 27.4781 3.20193 27.3854L10.6122 25.9018L8.2946 23.0581C7.6847 22.3781 7.56272 21.42 7.83718 20.5545C8.14213 19.6891 8.84351 19.0709 9.69738 18.8854L14.6376 17.8963L16.1928 13.1363C16.2538 12.92 16.1623 12.7654 16.1318 12.6727C16.1013 12.6109 15.9184 12.4872 15.6744 12.5181L10.3683 13.4763ZM22.4748 16.8454L23.8776 12.5491C23.9386 12.24 23.9081 11.9309 23.7251 11.7145L15.8574 2.5345C15.5524 2.1945 15.1865 2.22541 15.0645 2.25632C14.912 2.28723 14.5766 2.41087 14.4241 2.81269L11.71 11.1272L15.3695 10.4472C16.2538 10.2927 17.1077 10.6018 17.7176 11.2818C18.3275 11.9618 18.5104 12.92 18.2055 13.7854L16.6502 18.5454L19.9742 22.3163C20.1267 22.5018 20.3097 22.4709 20.4316 22.4709C20.5536 22.44 20.7061 22.4091 20.7671 22.1618L22.4748 16.8454Z" fill="url(#paint0_linear_29_155)"/>
<path d="M68.8882 13.8163C68.3697 13.1054 67.7294 12.5181 66.9365 12.0545C66.1436 11.5909 65.2593 11.2818 64.2834 11.189C63.2466 11.0036 62.2098 11.0654 61.2949 11.3745C60.3191 11.6218 59.4957 12.0236 58.7028 12.6109C57.9404 13.1981 57.3305 14.0018 56.8121 14.9599C56.2937 15.8872 56.0193 16.9999 55.8363 18.2981C55.4399 20.9872 55.8973 23.1509 57.2086 24.789C58.5199 26.4272 60.2581 27.6945 63.4296 27.6945C67.4549 27.7563 69.2541 24.8818 69.2541 24.8818C70.23 23.429 68.9187 22.5018 68.9187 22.5018C68.9187 22.5018 66.906 25.5309 63.4905 25.3763C60.2581 25.2527 58.5808 23.3981 58.4284 20.369H68.7967C69.1931 20.369 69.5591 20.3072 69.7725 20.1218C70.0165 19.9363 70.169 19.5963 70.2299 19.0709C70.2909 18.0818 70.2299 17.1545 69.986 16.2581C69.742 15.3309 69.4066 14.4963 68.8882 13.8163ZM58.3979 18.2363C58.6723 16.4745 59.3127 15.2072 60.2886 14.3727C61.2644 13.569 62.4842 13.1981 63.7955 13.3836C65.1068 13.569 66.1131 14.0945 66.723 15.0218C67.3634 15.8254 67.6379 16.8763 67.6379 18.1745L58.3979 18.2363Z" fill="white"/>
<path d="M84.7152 12.3945C84.1358 12.0545 83.404 11.6836 82.5196 11.4672C81.6657 11.1891 80.7204 11.0654 79.6836 11.0654C78.5247 11.0654 77.4879 11.2509 76.5731 11.5909C75.6582 11.8691 74.8348 12.3945 74.164 13.0436C73.5236 13.6927 73.0051 14.4963 72.6087 15.4854C72.2123 16.4745 72.0293 17.5872 72.0293 18.8854C72.0293 20.2763 72.2123 21.5127 72.6087 22.5018C73.0051 23.4909 73.5236 24.3254 74.164 24.9436C74.8653 25.5309 75.5972 25.9945 76.4816 26.2727C77.3354 26.5509 78.2808 26.6745 79.2566 26.6745C80.1715 26.6745 80.9948 26.5509 81.6047 26.3345C82.2451 26.0872 82.7636 25.8091 83.16 25.5309V27.6327C83.16 29.0854 82.7636 30.0745 81.9402 30.7236C81.1778 31.3727 80.0495 31.7127 78.5552 31.7127C77.5794 31.7127 76.6645 31.5272 75.7802 31.2491C74.9873 30.9709 74.2859 30.6 73.8285 30.26C73.5845 30.3836 73.4321 30.5382 73.2491 30.7236C73.1271 30.9709 73.0661 31.2491 73.0661 31.5272C73.0661 32.1145 73.3406 32.5782 74.042 32.98C74.3164 33.1654 74.8348 33.32 75.6582 33.5672C76.4206 33.8145 77.3964 33.9072 78.5247 33.9072C79.5616 33.9072 80.5374 33.7836 81.3913 33.5672C82.2451 33.32 83.0685 32.98 83.7089 32.4545C84.4103 31.9909 84.9287 31.4036 85.2642 30.6C85.6606 29.8272 85.8436 28.8382 85.8436 27.7254V14.1254C85.8436 13.7236 85.7216 13.4145 85.5081 13.1363C85.2946 12.8582 85.0507 12.6418 84.7152 12.3945ZM83.221 23.0272C82.8245 23.3672 82.3671 23.7382 81.7877 24.0163C81.2083 24.2945 80.4764 24.4182 79.5921 24.4182C78.8907 24.4182 78.2808 24.2945 77.7014 24.2327C77.122 23.9854 76.6036 23.7072 76.1461 23.2436C75.7497 22.78 75.3838 22.1927 75.1703 21.4818C74.9263 20.7091 74.8348 19.8436 74.8348 18.8545C74.8348 17 75.2923 15.64 76.1461 14.7127C77.061 13.7854 78.2808 13.3218 79.775 13.3218C80.5679 13.3218 81.2083 13.4454 81.7877 13.6C82.3671 13.7854 82.8245 14.0018 83.221 14.2491V23.0272Z" fill="white"/>
<path d="M51.7196 17.7108C50.7438 16.7218 49.3715 16.0108 47.5723 15.4854L45.5596 14.8981C44.3398 14.5581 44.0043 14.1254 43.4859 13.5999C42.9675 13.0745 42.6931 12.4254 42.6931 11.6836C42.6931 10.6327 43.1505 9.85994 43.8519 9.30358C44.5533 8.7163 45.5901 8.3763 46.7184 8.3763C47.8467 8.3763 49.8899 8.77812 51.7196 10.1381C51.9636 10.0145 52.116 9.85994 52.299 9.61267C52.482 9.36539 52.543 9.08721 52.543 8.80903C52.543 8.46903 52.36 8.09812 52.0855 7.81994C51.3232 7.23267 50.4693 6.36721 47.8772 6.05812C47.8772 6.05812 44.4313 5.47085 41.8392 7.6963C41.2598 8.15994 40.8024 8.74721 40.4669 9.45812C40.1925 10.1072 40.0095 10.849 40.0095 11.7454C40.0095 13.1363 40.4059 14.249 41.2293 15.1763C42.0832 15.9799 42.6016 16.629 44.0653 17.0308L46.9319 17.8963C48.2127 18.2981 49.1275 18.7618 49.7069 19.349C50.3473 19.9363 50.6218 20.6781 50.6218 21.6363C50.6218 22.749 50.2863 23.6145 49.463 24.3254C48.6701 24.9745 47.5723 25.3145 46.078 25.3145C45.3766 25.3145 44.7667 25.2527 44.1873 25.0672C43.6079 24.8818 43.0895 24.7272 42.6321 24.5418C42.1746 24.2945 41.7782 24.0781 41.4123 23.8308C41.0158 23.5836 40.7109 23.3054 40.4974 23.0581C40.162 23.1818 39.857 23.3363 39.6436 23.6454C39.3996 23.8927 39.3081 24.1708 39.3081 24.5727C39.3081 24.9127 39.4911 25.2836 39.7045 25.6236C40.04 25.9636 40.4974 26.2727 41.0768 26.5508C41.6562 26.829 42.3881 27.0763 43.2115 27.2618C44.0653 27.4472 45.0107 27.5399 46.0475 27.5399C48.3956 27.5399 50.1948 27.0145 51.4756 25.9018C52.7564 24.789 53.3663 23.3981 53.3663 21.5745C53.2748 19.9363 52.7564 18.6381 51.7196 17.7108Z" fill="white"/>
<path d="M117.528 4.88367C117.009 4.88367 116.613 5.06912 116.247 5.40912C115.973 5.6873 115.79 6.12003 115.79 6.58367C115.79 7.0473 115.973 7.44912 116.247 7.82003C116.582 8.09821 117.009 8.28367 117.528 8.28367C117.985 8.28367 118.443 8.09821 118.748 7.82003C119.022 7.48003 119.205 7.0473 119.205 6.58367C119.205 6.12003 119.022 5.71821 118.748 5.40912C118.473 5.03821 118.046 4.88367 117.528 4.88367Z" fill="white"/>
<path d="M134.574 12.3946C133.416 11.4673 131.799 11.0037 129.787 11.0037C128.567 11.0037 127.53 11.1891 126.554 11.4673C125.578 11.7455 124.816 12.1164 124.237 12.4564C123.779 12.7346 123.444 13.1055 123.261 13.3837C123.078 13.6618 122.986 14.0946 122.986 14.5582V26.0564C122.986 26.86 123.444 27.2928 124.42 27.2928C124.694 27.2928 124.938 27.2309 125.182 27.1691C125.426 27.1691 125.578 27.1073 125.7 27.0455V14.3728C126.219 14.0946 126.798 13.8473 127.5 13.6C128.201 13.3528 128.994 13.26 129.848 13.26C131.068 13.26 131.982 13.5382 132.684 14.1255C133.446 14.7128 133.782 15.64 133.782 16.9382H133.721V26.0564C133.721 26.86 134.178 27.2928 135.154 27.2928C135.398 27.2928 135.611 27.2309 135.855 27.1691C136.099 27.1691 136.252 27.1073 136.374 27.0455V16.7837C136.374 14.8055 135.794 13.3218 134.574 12.3946Z" fill="white"/>
<path d="M152.323 4.97632C152.079 4.97632 151.804 5.03814 151.56 5.09995C151.316 5.09995 151.164 5.16177 151.042 5.22359V12.0545C150.584 11.7763 150.005 11.529 149.304 11.3436C148.602 11.1581 147.931 11.0654 147.23 11.0654C146.132 11.0654 145.156 11.2509 144.241 11.529C143.327 11.869 142.503 12.3327 141.832 13.0436C141.131 13.7545 140.613 14.62 140.216 15.6709C139.82 16.66 139.637 17.9581 139.637 19.4109C139.637 20.8636 139.82 22.1 140.216 23.1509C140.613 24.2018 141.192 25.0054 141.893 25.7163C142.656 26.3654 143.51 26.8909 144.485 27.169C145.461 27.4472 146.559 27.6327 147.779 27.6327C148.816 27.6327 149.792 27.509 150.615 27.2309C151.408 26.9836 152.048 26.7054 152.506 26.4272C152.902 26.18 153.207 25.9018 153.359 25.6545C153.542 25.4072 153.634 25.0672 153.634 24.6036H153.756V6.21268C153.756 5.40905 153.299 4.97632 152.323 4.97632ZM151.011 24.4181C150.615 24.6654 150.158 24.8818 149.639 25.0672C149.182 25.2527 148.541 25.3145 147.748 25.3145C146.132 25.3145 144.821 24.8509 143.845 23.9236C142.869 22.9963 142.351 21.5436 142.351 19.4418C142.351 18.329 142.473 17.4018 142.747 16.5672C143.022 15.7945 143.449 15.1763 143.906 14.7127C144.363 14.1872 144.943 13.8472 145.522 13.6618C146.163 13.4145 146.803 13.3218 147.474 13.3218C148.236 13.3218 148.907 13.4454 149.487 13.6618C150.066 13.909 150.584 14.1872 151.042 14.4654V24.4181H151.011Z" fill="white"/>
<path d="M118.87 12.58C118.87 11.7764 118.412 11.3436 117.498 11.3436C117.254 11.3436 116.979 11.4054 116.735 11.4673C116.491 11.4673 116.339 11.5291 116.217 11.5909V26.0564C116.217 26.86 116.674 27.2927 117.65 27.2927C117.925 27.2927 118.168 27.2309 118.412 27.1691C118.656 27.1691 118.809 27.1073 118.931 27.0454H118.87V12.58Z" fill="white"/>
<path d="M110.453 12.4563C109.355 11.5909 107.922 11.1272 106.123 11.1272C104.964 11.1272 103.988 11.3127 103.134 11.6527C102.28 11.9927 101.518 12.4254 100.939 12.9509C100.481 12.3636 99.8407 11.8999 98.9869 11.6218C98.194 11.2818 97.1876 11.0963 96.1203 11.0963C95.1445 11.0963 94.2296 11.2818 93.2843 11.5599C92.4304 11.8381 91.607 12.1472 91.0276 12.549C90.5702 12.8272 90.2348 13.1981 90.0518 13.4763C89.8688 13.7545 89.7773 14.1254 89.7773 14.589V26.0872C89.7773 26.8909 90.2348 27.3236 91.2106 27.3236C91.4851 27.3236 91.729 27.2618 91.973 27.2C92.217 27.2 92.3694 27.1381 92.4914 27.0763V14.4345C92.9488 14.1563 93.4672 13.909 94.1076 13.6618C94.748 13.4145 95.4189 13.3218 96.1203 13.3218C97.1572 13.3218 98.011 13.569 98.6514 14.0945C99.2918 14.6199 99.5663 15.4236 99.5663 16.5363V26.0563C99.5663 26.86 100.024 27.2927 101 27.2927C101.243 27.2927 101.457 27.2309 101.701 27.169C101.945 27.169 102.097 27.1072 102.219 27.0454V16.3818C102.219 15.8563 102.158 15.3927 102.036 14.929C103.134 13.8781 104.445 13.3527 105.909 13.3527C107.007 13.3527 107.8 13.5999 108.44 14.1254C109.081 14.6509 109.355 15.4545 109.355 16.5672H109.416V26.0872C109.416 26.8909 109.874 27.3236 110.849 27.3236C111.093 27.3236 111.307 27.2618 111.551 27.2C111.795 27.2 111.947 27.1381 112.069 27.0763V16.4127C112.069 14.6818 111.551 13.3218 110.453 12.4563Z" fill="white"/>
</g>
<defs>
<linearGradient id="paint0_linear_29_155" x1="15.555" y1="-0.64057" x2="15.555" y2="39.2227" gradientUnits="userSpaceOnUse">
<stop stop-color="#FF6375"/>
<stop offset="1" stop-color="#7353F8"/>
</linearGradient>
<clipPath id="clip0_29_155">
<rect width="154" height="34" fill="white"/>
</clipPath>
</defs>
</svg>
