<?xml version="1.0" encoding="UTF-8" standalone="no"?>
<!-- Created with Inkscape (http://www.inkscape.org/) -->

<svg
   width="1920"
   height="1080"
   viewBox="0 0 507.99999 285.75"
   version="1.1"
   id="svg5"
   xml:space="preserve"
   inkscape:export-filename="volta-dark-background.webp"
   inkscape:export-xdpi="192"
   inkscape:export-ydpi="192"
   inkscape:version="1.2.2 (b0a8486541, 2022-12-01)"
   sodipodi:docname="volta-dark-background.svg"
   xmlns:inkscape="http://www.inkscape.org/namespaces/inkscape"
   xmlns:sodipodi="http://sodipodi.sourceforge.net/DTD/sodipodi-0.dtd"
   xmlns:xlink="http://www.w3.org/1999/xlink"
   xmlns="http://www.w3.org/2000/svg"
   xmlns:svg="http://www.w3.org/2000/svg"><sodipodi:namedview
     id="namedview7"
     pagecolor="#505050"
     bordercolor="#eeeeee"
     borderopacity="1"
     inkscape:showpageshadow="0"
     inkscape:pageopacity="0"
     inkscape:pagecheckerboard="0"
     inkscape:deskcolor="#505050"
     inkscape:document-units="mm"
     showgrid="false"
     inkscape:zoom="0.53795867"
     inkscape:cx="704.51509"
     inkscape:cy="506.54449"
     inkscape:window-width="1920"
     inkscape:window-height="1012"
     inkscape:window-x="1920"
     inkscape:window-y="0"
     inkscape:window-maximized="1"
     inkscape:current-layer="g1395" /><defs
     id="defs2"><linearGradient
       inkscape:collect="always"
       id="linearGradient1226"><stop
         style="stop-color:#ff00d6;stop-opacity:0.5905512;"
         offset="0"
         id="stop1222" /><stop
         style="stop-color:#ff00ff;stop-opacity:0;"
         offset="1"
         id="stop1224" /></linearGradient><linearGradient
       inkscape:collect="always"
       id="linearGradient4046"><stop
         style="stop-color:#ff00ff;stop-opacity:1"
         offset="0"
         id="stop4042" /><stop
         style="stop-color:#d4aa00;stop-opacity:1"
         offset="1"
         id="stop4044" /></linearGradient><linearGradient
       id="linearGradient3443"
       inkscape:swatch="solid"><stop
         style="stop-color:#b500ff;stop-opacity:1;"
         offset="0"
         id="stop3441" /></linearGradient><linearGradient
       inkscape:collect="always"
       xlink:href="#linearGradient4046"
       id="linearGradient4048"
       x1="981.08838"
       y1="32.982044"
       x2="318.11542"
       y2="1041.8438"
       gradientUnits="userSpaceOnUse"
       gradientTransform="matrix(1.1470138,0,0,1.1470138,1130.5059,-749.94024)" /><radialGradient
       inkscape:collect="always"
       xlink:href="#linearGradient1226"
       id="radialGradient1228"
       cx="-2492.0994"
       cy="-1435.9446"
       fx="-2492.0994"
       fy="-1435.9446"
       r="1367.9661"
       gradientUnits="userSpaceOnUse"
       gradientTransform="matrix(1.5789473,0,0,1.5789473,5803.8939,2113.4453)" /><filter
       inkscape:collect="always"
       style="color-interpolation-filters:sRGB"
       id="filter1250"
       x="-0.78732"
       y="-0.78732"
       width="2.57464"
       height="2.57464"><feGaussianBlur
         inkscape:collect="always"
         stdDeviation="500.42298"
         id="feGaussianBlur1252" /></filter><filter
       inkscape:collect="always"
       style="color-interpolation-filters:sRGB"
       id="filter1254"
       x="-0.63426884"
       y="-0.63426884"
       width="2.2685377"
       height="2.2685377"><feGaussianBlur
         inkscape:collect="always"
         stdDeviation="1141.6555"
         id="feGaussianBlur1256" /></filter></defs><g
     inkscape:label="Layer 1"
     inkscape:groupmode="layer"
     id="layer1"><g
       id="g1395"
       transform="matrix(0.08880455,0,0,0.08880455,88.024271,156.53629)"
       style="fill:#000000"><rect
         style="fill:#000000;stroke-width:2.97939"
         id="rect330"
         width="5720.4277"
         height="3217.7405"
         x="-991.2135"
         y="-1762.7057" /><rect
         style="fill:url(#radialGradient1228);fill-opacity:1;stroke-width:4.7043;opacity:0.73;filter:url(#filter1254)"
         id="rect474"
         width="4319.8926"
         height="4319.8926"
         x="-290.94608"
         y="-2313.782" /><circle
         style="fill:#001838;stroke-width:78.8248;stroke-opacity:0.3;filter:url(#filter1250);fill-opacity:0.95454544"
         id="path1242"
         cx="1869.0004"
         cy="-153.83546"
         r="762.72363" /><g
         id="g1248"><path
           d="m 1977.805,-643.19177 h 0.2019 z m 0,0 -82.8224,435.15067 300.0404,1.00937 -408.4102,589.91267 82.8235,-478.736062 -300.0221,-1.046077 z m 0.056,-73.40773 c -1.982,0 -3.9629,0.0723 -5.9082,0.21793 -12.9567,1.04723 -21.5467,5.37835 -31.731,12.22374 a 73.757575,73.757575 0 0 0 -15.3608,13.69074 65.021918,65.021918 0 0 0 -3.7817,4.91841 l -411.3283,544.38192 c -16.2418,22.26125 -18.6275,51.644301 -6.148,76.199572 12.4611,24.555272 37.6587,40.117953 65.2788,40.319833 l 211.8948,1.54158 -66.6186,392.498995 c -6.3315,33.73127 11.6536,67.35253 43.3112,80.89647 a 73.626816,73.626816 0 0 0 29.1239,5.98283 c 23.0687,0 42.0265,-10.79111 56.2507,-30.28117 l 411.8421,-589.91486 c 16.2417,-22.26239 18.6103,-51.681 6.148,-76.19956 -12.4611,-24.55527 -37.6587,-40.1191 -65.2788,-40.31983 l -211.8948,-0.36704 65.9029,-345.11351 a 71.642482,71.642482 0 0 0 2.0933,-17.26946 c 0,-39.7142 -31.6221,-72.08753 -71.1895,-73.37217 -0.8797,-0.0367 -1.7434,-0.0367 -2.6048,-0.0367 z"
           id="path2674-8"
           style="fill:url(#linearGradient4048);fill-opacity:1;stroke-width:1.14701" /><path
           d="m 1951.3756,-690.53347 h 0.2019 z m 0,0 -82.8224,435.15066 300.0405,1.00937 -408.4104,589.91265 82.8236,-478.73605 -300.0221,-1.04608 z m 0.056,-73.40773 c -1.982,0 -3.9629,0.0723 -5.9082,0.21793 -12.9567,1.04722 -21.5467,5.37835 -31.731,12.22373 a 73.757575,73.757575 0 0 0 -15.3608,13.69075 65.021918,65.021918 0 0 0 -3.7817,4.9184 l -411.3284,544.38192 c -16.2417,22.26124 -18.6275,51.64429 -6.1479,76.19957 12.4611,24.555267 37.6587,40.11795 65.2788,40.319824 l 211.8947,1.541587 -66.6185,392.498949 c -6.3315,33.73139 11.6536,67.35266 43.3112,80.8966 a 73.626816,73.626816 0 0 0 29.1239,5.98283 c 23.0687,0 42.0265,-10.79111 56.2507,-30.28117 l 411.8421,-589.91495 c 16.2418,-22.26238 18.6103,-51.68099 6.148,-76.19956 -12.4611,-24.55527 -37.6587,-40.1191 -65.2788,-40.31983 l -211.8948,-0.36704 65.9029,-345.11352 a 71.642482,71.642482 0 0 0 2.0933,-17.26944 c 0,-39.71421 -31.6221,-72.08753 -71.1894,-73.37217 -0.8798,-0.0367 -1.7435,-0.0367 -2.6049,-0.0367 z"
           id="path2674"
           style="fill:#ffffff;fill-opacity:1;stroke-width:1.14701" /></g><rect
         style="fill:#c83737;stroke-width:2.97939"
         id="rect392"
         width="1085.5116"
         height="1085.5116"
         x="-3034.8552"
         y="-1978.7003" /></g></g></svg>
